# xmcd
#
# Track frame offsets: 
#        150
#        17565
#        39796
#        60707
#        80963
#        103308
#        124301
#        144961
#        174387
#        210321
#        237835
#        275315
#
# Disc length: 3984 seconds
#
# Revision: 3
# Processed by: cddbd v1.5.2PL0 Copyright (c) Steve Scherf et al.
# Submitted via: ExactAudioCopy v0.99pb4
#
DISCID=9f0f8e0c
DTITLE=Various Artist - Hot as Hel
DYEAR=2005
DGENRE=Jazz
TTITLE0=Katriina - Spared Your Kiss
TTITLE1=Quintessence - Delirious
TTITLE2=Teddy Rok Seven feat. Okou - Feel
TTITLE3=Spyritual - Heart of Gold
TTITLE4=Present Sense feat. Tuomo - Nature Girl
TTITLE5=Nicole Willis - Say It
TTITLE6=Dalindeo - Poseidon
TTITLE7=J-City - All You Give
TTITLE8=Dharmaone feat. Tuomo - Belong
TTITLE9=Infekto - Left Hand Jazz
TTITLE10=Freestyle Man - Que Domingo Inquieto
TTITLE11=The Five Corners Quintet feat. Eero Koivistoinen - Blueprint
EXTD=YEAR: 2005
EXTT0=
EXTT1=
EXTT2=
EXTT3=
EXTT4=
EXTT5=
EXTT6=
EXTT7=
EXTT8=
EXTT9=
EXTT10=
EXTT11=
PLAYORDER=
